<svg width="285" height="116" viewBox="0 0 285 116" fill="none" xmlns="http://www.w3.org/2000/svg">
<g filter="url(#filter0_d)">
<path fill-rule="evenodd" clip-rule="evenodd" d="M42.6812 19.0404C46.3007 17.9668 49.9201 17.43 53.5396 17.43C53.6055 17.43 53.6733 17.4303 53.7431 17.431C54.6953 17.4398 56.0067 17.5084 57.6773 17.6369L51.0569 48.4629H66.2631L72.8834 17.6369H87.7792L71.3318 95.0123H56.436L64.7114 56.1177H49.5053L41.2299 95.0123H26.3341L41.3333 24.671C40.4134 25.0555 39.5345 25.4782 38.6966 25.9392C38.6817 25.9474 38.6668 25.9556 38.6519 25.9638C35.302 27.8155 32.6098 30.2809 30.5752 33.3602C29.8721 34.4539 29.2686 35.6113 28.7646 36.8322C28.7633 36.8355 28.7619 36.8388 28.7606 36.8421C28.3474 37.8444 28.0013 38.8895 27.7222 39.9775C27.7103 40.0241 27.6984 40.0708 27.6867 40.1175C27.4325 41.1328 27.2363 42.1852 27.0982 43.2746C27.0647 43.5381 27.0347 43.8037 27.0081 44.0715C26.9997 44.1558 26.9916 44.2404 26.9839 44.3252C26.8955 45.2969 26.8513 46.2969 26.8513 47.325C26.8513 49.8766 27.0927 51.6696 27.5754 52.7041C28.0581 53.6695 28.2995 54.2212 28.2995 54.3592C27.0235 54.3592 25.8569 54.2701 24.7995 54.092C24.7511 54.0838 24.7029 54.0755 24.6549 54.067C23.0849 53.7877 21.7604 53.3084 20.6816 52.6289C20.4127 52.4595 20.159 52.2777 19.9206 52.0834C18.674 50.9807 17.8608 49.3945 17.4809 47.325C17.3143 46.418 17.2311 45.418 17.2311 44.3252C17.2311 39.9116 19.0241 35.636 22.6101 31.4983C23.2185 30.7981 23.8545 30.1208 24.5183 29.4665C24.5402 29.4449 24.5621 29.4233 24.5841 29.4018C25.0099 28.9841 25.4471 28.5759 25.8956 28.1769C28.1039 26.213 30.5869 24.4766 33.3449 22.9676C34.3827 22.3998 35.4593 21.8642 36.5749 21.3609C37.5305 20.918 38.4861 20.5126 39.4417 20.1446C40.5215 19.7288 41.6014 19.3607 42.6812 19.0404ZM30.5999 8.29503C23.2968 11.6003 16.9123 16.1509 11.7648 22.0753L11.7531 22.0888C6.46792 28.1871 2.86401 35.6807 2.86401 44.3252C2.86401 49.9606 4.25803 57.4098 10.4014 62.8443C10.5468 62.973 10.6948 63.0986 10.8453 63.2213C12.9778 64.9589 15.2822 66.1765 17.6137 67.0162L12.2829 92.0161C11.3786 96.2569 12.438 100.679 15.1658 104.05C17.8936 107.421 21.9979 109.379 26.3341 109.379H41.2299C43.9981 109.379 46.6123 108.589 48.8332 107.203C51.088 108.609 53.7164 109.379 56.436 109.379H71.3318C75.2932 109.379 78.9395 107.761 81.5686 105.093C87.0932 108.698 93.4548 110 99.5757 110C106.882 110 113.455 108.244 119.309 105.113C123.908 108.512 129.3 110 134.725 110C139.908 110 144.775 108.753 149.252 106.657C153.286 108.967 157.783 110 162.303 110C168.072 110 173.45 108.455 178.334 105.914C183.46 108.712 189.157 109.793 194.742 109.793C202.207 109.793 209.128 107.471 215.115 103.095C215.163 103.06 215.211 103.025 215.259 102.989C217.489 101.316 219.49 99.4301 221.278 97.3689C222.311 99.4796 223.681 101.438 225.365 103.194C225.506 103.342 225.65 103.486 225.797 103.627C230.105 107.755 235.623 110 241.634 110C247.658 110 253.261 107.737 257.586 103.413C257.658 103.341 257.729 103.268 257.799 103.194C261.928 98.8865 264.173 93.368 264.173 87.3575C264.173 83.8395 263.401 80.4647 261.897 77.4045C262.273 76.6325 262.583 75.8187 262.819 74.969L277.818 21.0752C279.115 16.4176 277.981 11.4203 274.803 7.77737C271.624 4.13448 266.827 2.33457 262.036 2.9878L246.106 5.16011C239.793 6.021 234.801 10.9372 233.843 17.2364L231.164 34.8657C230.784 34.8353 230.401 34.8199 230.017 34.8199H226.706C226.129 34.8199 225.557 34.8546 224.992 34.9224C219.544 29.7994 212.672 27.9927 206.225 27.9927C201.005 27.9927 195.998 28.9116 191.378 30.8251L192.492 25.5947C193.465 21.0223 192.154 16.2619 188.975 12.8338C185.796 9.40566 181.149 7.73844 176.516 8.3645L161.206 10.4334C160.503 10.5283 159.816 10.6737 159.149 10.8659C156.213 8.79293 152.571 7.87353 148.938 8.3645L133.628 10.4334C127.62 11.2453 122.768 15.7413 121.502 21.6703L119.923 29.0627C116.965 28.2588 114.02 27.9927 111.368 27.9927C107.398 27.9927 103.556 28.5315 99.9165 29.6368L101.832 20.6241C102.734 16.3843 101.672 11.9641 98.9446 8.59547C96.2167 5.22683 92.1138 3.26983 87.7792 3.26983H72.8834C70.1154 3.26983 67.5011 4.05989 65.2801 5.44628C63.338 4.2352 61.1126 3.49164 58.7792 3.31215C56.8741 3.1656 55.0612 3.06294 53.5396 3.06294C45.6169 3.06294 37.9327 4.9071 30.5999 8.29503ZM86.4517 62.8051C88.2726 57.523 91.1136 52.9309 94.9745 49.0288C95.0079 48.9951 95.0413 48.9614 95.0749 48.9278C95.1609 48.8415 95.2475 48.7555 95.3346 48.6698C95.556 48.4484 95.7805 48.2329 96.0082 48.0231C100.107 44.2476 105.227 42.3598 111.368 42.3598C111.649 42.3598 111.925 42.3643 112.196 42.3734C113.999 42.434 115.571 42.6963 116.912 43.1603C120.745 44.4865 122.69 47.4609 122.746 52.0834C122.747 52.152 122.747 52.221 122.747 52.2903C122.747 56.1522 121.644 59.7037 119.437 62.9449C119.404 62.9937 119.37 63.0424 119.337 63.0909C119.219 63.2606 119.1 63.4285 118.979 63.5947C118.949 63.6353 118.919 63.6758 118.889 63.7162C117.752 65.2539 116.441 66.6429 114.957 67.8832C114.897 67.9328 114.837 67.9822 114.777 68.0314C113.638 68.9658 112.397 69.8141 111.057 70.5764C110.92 70.654 110.783 70.7308 110.644 70.8066C110.533 70.8654 110.422 70.9233 110.31 70.9805C110.286 70.9927 110.263 71.0048 110.239 71.0168C110.193 71.0401 110.147 71.0633 110.102 71.0863C109.641 71.3177 109.177 71.5362 108.709 71.7417C108.018 72.0451 107.319 72.3202 106.612 72.5671C106.557 72.5863 106.502 72.6053 106.447 72.6242C106.363 72.6527 106.28 72.6809 106.196 72.7087C104.21 73.3679 102.16 73.8064 100.046 74.0243C99.6843 74.0616 99.3206 74.0924 98.9551 74.1168C98.8172 76.1856 98.7482 77.5649 98.7482 78.2545C98.7482 79.3701 98.8121 80.3692 98.9399 81.2518C99.0654 82.119 99.2527 82.8737 99.5016 83.5159C99.5257 83.5782 99.5504 83.6395 99.5757 83.6997C99.5829 83.7167 99.5901 83.7336 99.5973 83.7504C99.8459 84.3282 100.149 84.8064 100.507 85.1852C101.679 86.3575 103.576 86.9437 106.196 86.9437C107.333 86.9437 108.418 86.8634 109.452 86.7027C109.552 86.6872 109.652 86.6708 109.751 86.6538C111.983 86.2698 113.97 85.5044 115.713 84.3576C115.759 84.3283 115.804 84.2987 115.85 84.2689C116.308 83.9713 116.772 83.6479 117.244 83.2988C117.279 83.2726 117.315 83.2462 117.35 83.2198C117.37 83.2045 117.391 83.1893 117.411 83.1739C119.616 81.5184 121.971 79.3027 124.477 76.527C124.48 76.5167 124.482 76.5063 124.484 76.496L135.552 24.671L150.862 22.6022L138.966 78.4614C138.858 78.8635 138.772 79.2761 138.707 79.6991C138.706 79.7035 138.705 79.7079 138.704 79.7123C138.695 79.7716 138.687 79.831 138.678 79.8907C138.594 80.4966 138.552 81.1235 138.552 81.7716C138.552 82.1649 138.577 82.5274 138.628 82.859C138.647 82.9836 138.669 83.1039 138.695 83.2198C138.843 83.877 139.106 84.3943 139.483 84.7714C139.553 84.8274 139.627 84.8805 139.705 84.9307C140.352 85.3453 141.289 85.567 142.515 85.5957C142.55 85.5966 142.585 85.5972 142.621 85.5977C142.678 85.5985 142.735 85.5989 142.793 85.5989C144.751 85.5989 146.576 84.8059 148.27 83.2198C148.306 83.1857 148.343 83.1512 148.379 83.1163C148.799 82.6967 149.19 82.2484 149.552 81.7716C149.654 81.6379 149.753 81.502 149.85 81.3639C149.968 81.1967 150.082 81.0262 150.193 80.8524C150.832 79.8514 151.362 78.7413 151.782 77.5219C151.851 77.3236 151.916 77.1225 151.979 76.9184C152.006 76.779 152.033 76.6381 152.062 76.496L163.13 24.671L178.44 22.6022L166.544 78.4614C166.489 78.6656 166.44 78.8725 166.397 79.082C166.354 79.2852 166.317 79.4909 166.285 79.6991C166.284 79.7035 166.283 79.7079 166.283 79.7123C166.275 79.7607 166.268 79.8093 166.261 79.858C166.259 79.8689 166.258 79.8798 166.256 79.8907C166.172 80.4966 166.13 81.1235 166.13 81.7716C166.13 83.1508 166.44 84.1508 167.061 84.7714C167.412 85.0521 167.87 85.2614 168.435 85.3993C168.912 85.5155 169.464 85.581 170.093 85.5957C170.128 85.5966 170.163 85.5972 170.199 85.5977C170.256 85.5985 170.313 85.5989 170.371 85.5989C172.371 85.5989 174.233 84.7714 175.957 83.1163C176.377 82.6967 176.768 82.2484 177.13 81.7716C177.232 81.6379 177.331 81.502 177.428 81.3639C177.546 81.1967 177.66 81.0262 177.771 80.8524C177.923 80.614 178.069 80.3695 178.209 80.1188C178.197 79.7791 178.192 79.4335 178.192 79.082C178.192 78.1097 178.23 77.1186 178.308 76.1088C178.314 76.033 178.32 75.9571 178.326 75.881C178.362 75.453 178.404 75.0216 178.453 74.5869C178.695 72.4521 179.104 70.2366 179.681 67.9404C180.048 66.4803 180.482 64.9875 180.985 63.4622C181.131 63.0128 181.284 62.5684 181.445 62.1289C181.516 61.9345 181.588 61.7411 181.662 61.5486C182.944 58.2075 184.652 55.1544 186.785 52.3892C187.791 51.0854 188.892 49.8456 190.088 48.6698C190.414 48.3438 190.747 48.0304 191.087 47.7297C191.114 47.7053 191.142 47.6811 191.169 47.6569C194.472 44.7663 198.433 43.0588 203.054 42.5342C203.793 42.4503 204.549 42.3967 205.322 42.3733C205.62 42.3643 205.921 42.3598 206.225 42.3598C206.505 42.3598 206.781 42.3653 207.052 42.3764C209.357 42.4702 211.339 42.9621 213.001 43.8523C213.022 43.8639 213.044 43.8756 213.065 43.8873C213.984 44.3876 214.803 45.0107 215.522 45.7567C215.542 45.7775 215.562 45.7984 215.582 45.8193C215.714 45.9579 215.842 46.1006 215.967 46.2476C216.542 46.9256 217.046 47.6922 217.479 48.5476C217.553 48.6946 217.626 48.8442 217.696 48.9965C217.696 48.9976 217.697 48.9987 217.697 48.9999C218.228 50.1534 218.638 51.4571 218.926 52.9112C218.943 52.999 218.96 53.0874 218.977 53.1763C219.015 53.3821 219.051 53.5909 219.084 53.8027C219.092 53.8527 219.1 53.9029 219.107 53.9532C219.113 53.9878 219.118 54.0225 219.123 54.0573C219.23 54.7796 219.309 55.5354 219.362 56.3246C219.964 56.1878 220.538 55.9752 221.086 55.6866C221.193 55.6302 221.299 55.5709 221.404 55.5086C221.425 55.4961 221.446 55.4834 221.467 55.4706C221.51 55.4443 221.554 55.4174 221.597 55.3901C222.236 54.9843 222.836 54.4683 223.396 53.842C223.412 53.8238 223.427 53.8056 223.442 53.7873C224.025 53.0987 224.59 52.3675 225.139 51.5935C225.678 50.8326 226.2 50.0304 226.706 49.187H230.017C229.755 49.7102 229.497 50.2177 229.244 50.7096C229.011 51.1621 228.781 51.6013 228.555 52.0273C227.911 53.2405 227.295 54.3462 226.706 55.3445C226.604 55.518 226.503 55.6882 226.402 55.8552C226.33 55.9761 226.257 56.0953 226.185 56.2127C226.169 56.2397 226.152 56.2665 226.136 56.2933C225.762 56.9016 225.401 57.4637 225.051 57.9797C224.994 58.0614 224.936 58.1425 224.878 58.223C224.587 58.6224 224.279 59.0072 223.954 59.3775C223.457 59.9437 222.92 60.4758 222.343 60.974C221.828 61.4179 221.281 61.8349 220.703 62.2248C220.273 62.5142 219.826 62.7888 219.362 63.0484C219.303 63.9707 219.225 64.877 219.129 65.7672C219.109 65.9476 219.089 66.1273 219.068 66.3063C219.062 66.356 219.056 66.4057 219.05 66.4553C218.876 67.8992 218.651 69.3001 218.376 70.6579C217.682 74.0849 216.666 77.2377 215.328 80.1165C214.732 81.4385 214.086 82.68 213.389 83.8411C211.507 86.9805 209.256 89.5318 206.638 91.4952C204.224 93.2594 201.638 94.4298 198.88 95.0063C197.541 95.2861 196.162 95.426 194.742 95.426C193.329 95.426 191.997 95.3255 190.747 95.1243C188.918 94.8299 187.265 94.3201 185.787 93.5948C184.969 93.1935 184.206 92.7263 183.496 92.1932C183.388 92.1121 183.281 92.0295 183.176 91.9454C182.993 91.7999 182.815 91.6498 182.64 91.4952C182.411 91.2935 182.192 91.0828 181.981 90.863C181.889 90.7671 181.799 90.6694 181.71 90.5701C180.891 89.6515 180.214 88.5864 179.681 87.3748C179.586 87.1587 179.495 86.9379 179.409 86.7125C179.38 86.6366 179.352 86.5603 179.324 86.4834C179.316 86.4618 179.308 86.4401 179.301 86.4184C179.295 86.4267 179.29 86.4349 179.284 86.4431C179.265 86.4702 179.247 86.4972 179.229 86.5241C177.703 88.747 176.026 90.473 174.199 91.7021C172.919 92.5403 171.643 93.2444 170.371 93.8145C169.368 94.2641 168.367 94.6303 167.368 94.9131C165.843 95.3449 164.323 95.5824 162.809 95.6257C162.64 95.6305 162.471 95.6329 162.303 95.6329C161.023 95.6329 159.837 95.4784 158.743 95.1693C158.213 95.0198 157.706 94.8342 157.22 94.6123C157.188 94.5975 157.155 94.5825 157.123 94.5673C156.73 94.3831 156.352 94.175 155.989 93.9431C155.361 93.543 154.776 93.0719 154.234 92.5296C153.755 92.0336 153.333 91.478 152.968 90.863C152.63 90.2934 152.342 89.6728 152.103 89.0011C151.852 88.2972 151.656 87.5372 151.514 86.7211C150.025 88.8492 148.394 90.5095 146.62 91.7021C145.341 92.5403 144.065 93.2444 142.793 93.8145C141.546 94.3735 140.301 94.8036 139.061 95.1049C137.611 95.4569 136.165 95.6329 134.725 95.6329C133.696 95.6329 132.727 95.533 131.818 95.3332C131.597 95.2845 131.379 95.2299 131.165 95.1693C130.635 95.0198 130.128 94.8342 129.642 94.6123C129.215 94.4172 128.804 94.1942 128.411 93.9431C128.147 93.7754 127.892 93.5952 127.644 93.4024C127.3 93.1355 126.971 92.8445 126.656 92.5296C126.176 92.0336 125.754 91.478 125.39 90.863C125.043 90.2779 124.748 89.639 124.506 88.9462C123.939 87.3303 123.656 85.4215 123.656 83.2198C123.656 83.0923 123.658 82.962 123.661 82.8289C123.556 82.9602 123.451 83.0905 123.346 83.2198C121.753 85.1759 120.094 86.9009 118.369 88.3947C118.354 88.4073 118.34 88.42 118.325 88.4326C115.944 90.4876 113.437 92.1027 110.803 93.278C109.308 93.9453 107.772 94.4707 106.196 94.8544C104.064 95.3734 101.857 95.6329 99.5757 95.6329C96.4675 95.6329 93.7813 95.1468 91.5173 94.1746C91.3963 94.1227 91.2765 94.0693 91.1579 94.0146C89.8524 93.412 88.6931 92.6412 87.6798 91.7021C87.5765 91.6038 87.4751 91.5036 87.3756 91.4013C87.2114 91.2327 87.0523 91.0587 86.8984 90.8793C84.5919 88.1909 83.4386 84.2929 83.4386 79.1855C83.4386 74.4271 84.3696 69.186 86.2316 63.4622C86.3032 63.2419 86.3766 63.0229 86.4517 62.8051ZM100.254 66.8769C100.084 67.6237 99.9269 68.3819 99.7826 69.1515C102.334 69.0136 104.748 68.1171 107.024 66.462C107.325 66.249 107.619 66.0285 107.905 65.8006C107.927 65.7829 107.949 65.7652 107.971 65.7475C109.261 64.7098 110.386 63.5197 111.347 62.1772C111.646 61.7595 111.929 61.327 112.196 60.8798C112.338 60.6414 112.476 60.3988 112.61 60.152C112.825 59.7718 113.025 59.3885 113.209 59.0022C113.225 58.9669 113.242 58.9317 113.259 58.8964C113.277 58.8564 113.296 58.8164 113.314 58.7763C113.521 58.3239 113.706 57.8674 113.87 57.4067C114.334 56.0962 114.621 54.752 114.731 53.374C114.759 53.015 114.776 52.6538 114.781 52.2903C114.781 52.2214 114.782 52.1525 114.782 52.0834C114.782 49.256 113.92 47.8423 112.196 47.8423C111.92 47.8423 111.644 47.8692 111.368 47.923C109.647 48.2592 107.943 49.646 106.255 52.0834C105.786 52.7609 105.318 53.5194 104.851 54.3592C104.661 54.7126 104.474 55.07 104.292 55.4312C104.262 55.4901 104.233 55.549 104.203 55.6081C103.989 56.038 103.781 56.4733 103.579 56.9141C103.565 56.9454 103.55 56.9766 103.536 57.0079C103.382 57.3463 103.231 57.6878 103.084 58.0326C103 58.2305 102.917 58.4296 102.835 58.6297C102.67 59.0314 102.51 59.4373 102.355 59.8475C102.338 59.8902 102.322 59.9329 102.306 59.9757C101.488 62.1563 100.804 64.4567 100.254 66.8769ZM193.766 81.0244C193.944 82.585 194.27 83.7306 194.742 84.4611C195.048 84.9053 195.454 85.2601 195.961 85.5255C196.712 85.9193 197.685 86.1162 198.88 86.1162C199.901 86.1162 200.894 85.7851 201.859 85.1231C201.886 85.1045 201.914 85.0857 201.941 85.0666C203.359 84.0648 204.718 82.3458 206.018 79.9096C206.389 79.2129 206.741 78.4888 207.074 77.7373C207.127 77.6173 207.18 77.4965 207.232 77.3751C207.34 77.1233 207.446 76.8686 207.549 76.6108C207.562 76.58 207.574 76.5493 207.586 76.5184C207.788 76.0136 207.982 75.4972 208.167 74.9694C208.982 72.6476 209.639 70.1042 210.137 67.339C210.206 66.9595 210.271 66.5757 210.333 66.1878C210.417 65.6661 210.496 65.1368 210.569 64.6C209.718 64.2806 209.085 63.7147 208.672 62.9022C208.584 62.7296 208.506 62.5459 208.438 62.3511C208.204 61.6808 208.087 60.8788 208.087 59.9451C208.087 59.4385 208.121 58.9637 208.189 58.5207C208.194 58.4897 208.199 58.4589 208.204 58.4282C208.289 57.9243 208.418 57.4624 208.593 57.0425C209.062 55.9133 209.859 55.0878 210.983 54.5661C210.911 53.4188 210.774 52.458 210.572 51.6835C210.386 50.9682 210.143 50.4119 209.845 50.0146C209.493 49.443 208.988 49.0537 208.328 48.8465C207.952 48.7287 207.527 48.6698 207.052 48.6698C206.775 48.6698 206.499 48.6944 206.225 48.7436C204.248 49.0979 202.352 50.7284 200.535 53.6351C200.198 54.1642 199.87 54.7127 199.552 55.2805C199.266 55.7918 198.989 56.3188 198.719 56.8615C198.67 56.9593 198.622 57.0575 198.574 57.1563C198.559 57.1878 198.543 57.2194 198.528 57.251C198.372 57.5735 198.219 57.9013 198.069 58.2345C198.069 58.236 198.068 58.2375 198.067 58.239C198.067 58.2397 198.067 58.2403 198.066 58.241C197.817 58.7942 197.576 59.3622 197.342 59.9451C196.993 60.8171 196.661 61.7222 196.346 62.6605C196.339 62.6817 196.332 62.7029 196.325 62.724C196.023 63.629 195.737 64.5646 195.467 65.531C195.417 65.7154 195.369 65.8988 195.321 66.0814C195.218 66.4766 195.12 66.8676 195.026 67.2545C195.014 67.3061 195.001 67.3576 194.989 67.4091C194.663 68.7705 194.394 70.0808 194.183 71.3398C194.08 71.9579 193.99 72.5636 193.915 73.157C193.903 73.2503 193.891 73.3433 193.88 73.436C193.696 74.9513 193.605 76.3851 193.605 77.7373C193.605 78.4773 193.624 79.1639 193.661 79.7971C193.687 80.2314 193.722 80.6405 193.766 81.0244ZM234.002 84.0854C233.573 85.0828 233.358 86.1734 233.358 87.3575C233.358 89.6332 234.151 91.5986 235.737 93.2537C237.393 94.8399 239.358 95.6329 241.634 95.6329C243.909 95.6329 245.84 94.8399 247.426 93.2537C249.013 91.5986 249.806 89.6332 249.806 87.3575C249.806 86.6996 249.739 86.0706 249.607 85.4704C249.469 84.846 249.259 84.2528 248.978 83.6908C248.594 82.9241 248.077 82.2153 247.426 81.5647C245.84 79.9785 243.909 79.1855 241.634 79.1855C241.136 79.1855 240.653 79.2234 240.185 79.2992C238.513 79.5702 237.031 80.3253 235.737 81.5647C234.977 82.3256 234.398 83.1658 234.002 84.0854ZM263.977 17.2231L248.978 71.1169H240.185L248.047 19.3954L263.977 17.2231Z" fill="white"/>
</g>
<path d="M41.3333 24.671C36.7128 26.602 33.1268 29.4984 30.5752 33.3602C28.0926 37.2221 26.8513 41.877 26.8513 47.325C26.8513 49.8766 27.0926 51.6696 27.5754 52.7041C28.0581 53.6695 28.2995 54.2212 28.2995 54.3592C24.5755 54.3592 21.7826 53.6006 19.9206 52.0834C18.1276 50.4973 17.2311 47.9112 17.2311 44.3252C17.2311 39.9116 19.0241 35.636 22.6101 31.4983C26.2651 27.2916 30.92 23.9124 36.5749 21.3609C42.2298 18.7403 47.8847 17.43 53.5396 17.43C54.505 17.43 55.8843 17.499 57.6773 17.6369L51.0569 48.4629H66.2631L72.8834 17.6369H87.7792L71.3318 95.0123H56.436L64.7114 56.1177H49.5053L41.2299 95.0123H26.3341L41.3333 24.671Z" fill="black"/>
<path d="M99.5757 95.6329C94.4726 95.6329 90.5072 94.3226 87.6798 91.7021C84.8524 89.0126 83.4386 84.8404 83.4386 79.1855C83.4386 74.4271 84.3696 69.186 86.2316 63.4622C88.0936 57.7383 91.1279 52.8075 95.3346 48.6698C99.5413 44.4631 104.886 42.3598 111.368 42.3598C118.954 42.3598 122.747 45.67 122.747 52.2903C122.747 56.1522 121.644 59.7037 119.437 62.9449C117.23 66.1861 114.299 68.8067 110.644 70.8066C106.989 72.7375 103.093 73.8409 98.9551 74.1168C98.8172 76.1856 98.7482 77.5649 98.7482 78.2545C98.7482 81.6336 99.3344 83.9439 100.507 85.1852C101.679 86.3575 103.576 86.9437 106.196 86.9437C109.92 86.9437 113.092 86.0817 115.713 84.3576C118.402 82.6336 121.333 80.013 124.505 76.496H128.023C120.368 89.2539 110.886 95.6329 99.5757 95.6329ZM99.7826 69.1515C102.334 69.0136 104.748 68.1171 107.024 66.462C109.368 64.8069 111.23 62.7036 112.61 60.152C114.058 57.6004 114.782 54.9109 114.782 52.0834C114.782 49.256 113.92 47.8423 112.196 47.8423C109.713 47.8423 107.265 50.0146 104.851 54.3592C102.507 58.7038 100.817 63.6346 99.7826 69.1515Z" fill="black"/>
<path d="M134.725 95.6329C131.414 95.6329 128.725 94.5985 126.656 92.5296C124.656 90.4608 123.656 87.3575 123.656 83.2198C123.656 81.4957 123.932 79.2544 124.484 76.496L135.552 24.671L150.862 22.6022L138.966 78.4614C138.69 79.4958 138.552 80.5992 138.552 81.7716C138.552 83.1508 138.862 84.1508 139.483 84.7714C140.173 85.3231 141.276 85.599 142.793 85.599C144.793 85.599 146.655 84.7714 148.379 83.1163C150.103 81.3923 151.344 79.1855 152.103 76.496H156.448C153.896 83.9439 150.62 89.0126 146.62 91.7021C142.621 94.3226 138.655 95.6329 134.725 95.6329Z" fill="black"/>
<path d="M162.303 95.6329C158.992 95.6329 156.303 94.5985 154.234 92.5296C152.234 90.4608 151.234 87.3575 151.234 83.2198C151.234 81.4957 151.51 79.2544 152.062 76.496L163.13 24.671L178.44 22.6022L166.544 78.4614C166.268 79.4958 166.13 80.5992 166.13 81.7716C166.13 83.1508 166.44 84.1508 167.061 84.7714C167.751 85.3231 168.854 85.599 170.371 85.599C172.371 85.599 174.233 84.7714 175.957 83.1163C177.681 81.3923 178.922 79.1855 179.681 76.496H184.026C181.474 83.9439 178.198 89.0126 174.199 91.7021C170.199 94.3226 166.233 95.6329 162.303 95.6329Z" fill="black"/>
<path d="M194.742 95.426C189.639 95.426 185.605 94.1158 182.64 91.4952C179.674 88.8747 178.192 84.7369 178.192 79.082C178.192 74.3237 179.123 69.117 180.985 63.4622C182.847 57.7383 185.881 52.8075 190.088 48.6698C194.294 44.4631 199.673 42.3598 206.225 42.3598C214.362 42.3598 218.741 47.0147 219.362 56.3246C220.879 55.9798 222.224 55.1522 223.396 53.8419C224.569 52.4627 225.672 50.9111 226.706 49.187H230.017C228.155 52.911 226.499 55.8418 225.051 57.9797C223.603 60.0485 221.707 61.7381 219.362 63.0484C218.948 69.5308 217.603 75.2202 215.328 80.1165C213.121 85.0128 210.224 88.8057 206.638 91.4952C203.052 94.1158 199.087 95.426 194.742 95.426ZM198.88 86.1162C201.432 86.1162 203.811 84.0473 206.018 79.9096C208.225 75.7719 209.742 70.6687 210.569 64.6C208.914 63.9794 208.087 62.4277 208.087 59.9451C208.087 57.2556 209.052 55.4626 210.983 54.5661C210.845 52.3593 210.466 50.8421 209.845 50.0146C209.293 49.1181 208.362 48.6698 207.052 48.6698C204.776 48.6698 202.604 50.3249 200.535 53.6351C198.466 56.8763 196.777 60.8416 195.467 65.531C194.225 70.1515 193.605 74.2202 193.605 77.7373C193.605 81.0475 193.984 83.2887 194.742 84.4611C195.501 85.5645 196.88 86.1162 198.88 86.1162Z" fill="black"/>
<path d="M248.047 19.3954L263.977 17.2231L248.978 71.1169H240.185L248.047 19.3954ZM241.634 95.6329C239.358 95.6329 237.393 94.8399 235.737 93.2537C234.151 91.5986 233.358 89.6332 233.358 87.3575C233.358 85.0817 234.151 83.1508 235.737 81.5647C237.393 79.9785 239.358 79.1855 241.634 79.1855C243.909 79.1855 245.84 79.9785 247.426 81.5647C249.013 83.1508 249.806 85.0817 249.806 87.3575C249.806 89.6332 249.013 91.5986 247.426 93.2537C245.84 94.8399 243.909 95.6329 241.634 95.6329Z" fill="black"/>
<defs>
<filter id="filter0_d" x="0.864014" y="0.855865" width="283.481" height="115.144" filterUnits="userSpaceOnUse" color-interpolation-filters="sRGB">
<feFlood flood-opacity="0" result="BackgroundImageFix"/>
<feColorMatrix in="SourceAlpha" type="matrix" values="0 0 0 0 0 0 0 0 0 0 0 0 0 0 0 0 0 0 127 0"/>
<feOffset dx="2" dy="2"/>
<feGaussianBlur stdDeviation="2"/>
<feColorMatrix type="matrix" values="0 0 0 0 0 0 0 0 0 0 0 0 0 0 0 0 0 0 0.25 0"/>
<feBlend mode="normal" in2="BackgroundImageFix" result="effect1_dropShadow"/>
<feBlend mode="normal" in="SourceGraphic" in2="effect1_dropShadow" result="shape"/>
</filter>
</defs>
</svg>
